<?xml version="1.0" encoding="UTF-8" standalone="no"?>
<svg
   xmlns:dc="http://purl.org/dc/elements/1.1/"
   xmlns:cc="http://creativecommons.org/ns#"
   xmlns:rdf="http://www.w3.org/1999/02/22-rdf-syntax-ns#"
   xmlns:svg="http://www.w3.org/2000/svg"
   xmlns="http://www.w3.org/2000/svg"
   xmlns:sodipodi="http://sodipodi.sourceforge.net/DTD/sodipodi-0.dtd"
   xmlns:inkscape="http://www.inkscape.org/namespaces/inkscape"
   viewBox="0 0 596.46997 561.14038"
   height="561.14038"
   width="596.46997"
   xml:space="preserve"
   version="1.1"
   id="svg4136"
   inkscape:version="0.91 r13725"
   sodipodi:docname="figure_4.svg"><sodipodi:namedview
     pagecolor="#ffffff"
     bordercolor="#666666"
     borderopacity="1"
     objecttolerance="10"
     gridtolerance="10"
     guidetolerance="10"
     inkscape:pageopacity="0"
     inkscape:pageshadow="2"
     inkscape:window-width="1301"
     inkscape:window-height="744"
     id="namedview177"
     showgrid="false"
     inkscape:zoom="1.1895576"
     inkscape:cx="435.89146"
     inkscape:cy="220.02474"
     inkscape:window-x="65"
     inkscape:window-y="24"
     inkscape:window-maximized="1"
     inkscape:current-layer="svg4136" /><metadata
     id="metadata4142"><rdf:RDF><cc:Work
         rdf:about=""><dc:format>image/svg+xml</dc:format><dc:type
           rdf:resource="http://purl.org/dc/dcmitype/StillImage" /><dc:title /></cc:Work></rdf:RDF></metadata><defs
     id="defs4140"><clipPath
       id="clipPath4310"
       clipPathUnits="userSpaceOnUse"><path
         id="path4312"
         d="m 34.102,212.58 199.672,0 0,-188.262 -199.672,0 0,188.262 z" /></clipPath><clipPath
       id="clipPath4320"
       clipPathUnits="userSpaceOnUse"><path
         id="path4322"
         d="m 81,24 154,0 0,191 -154,0 0,-191 z" /></clipPath><clipPath
       id="clipPath4336"
       clipPathUnits="userSpaceOnUse"><path
         id="path4338"
         d="m 77,24 158,0 0,190 -158,0 0,-190 z" /></clipPath><clipPath
       id="clipPath4426"
       clipPathUnits="userSpaceOnUse"><path
         id="path4428"
         d="m 273.234,213.861 198.895,0 0,-187.527 -198.895,0 0,187.527 z" /></clipPath><clipPath
       id="clipPath4436"
       clipPathUnits="userSpaceOnUse"><path
         id="path4438"
         d="m 272,26 149,0 0,190 -149,0 0,-190 z" /></clipPath><clipPath
       id="clipPath4452"
       clipPathUnits="userSpaceOnUse"><path
         id="path4454"
         d="m 272,27 147,0 0,189 -147,0 0,-189 z" /></clipPath><clipPath
       clipPathUnits="userSpaceOnUse"
       id="clipPath4950"><path
         d="m 7.2,7.8050308 285.46562,0 0,223.1999992 -285.46562,0 0,-223.1999992 z"
         id="path4952" /></clipPath><clipPath
       clipPathUnits="userSpaceOnUse"
       id="clipPath4960"><path
         d="m 7.2,7.8050308 285.46562,0 0,223.1999992 -285.46562,0 0,-223.1999992 z"
         id="path4962" /></clipPath><clipPath
       clipPathUnits="userSpaceOnUse"
       id="clipPath4970"><path
         d="m 7.2,7.8050308 285.46562,0 0,223.1999992 -285.46562,0 0,-223.1999992 z"
         id="path4972" /></clipPath><clipPath
       clipPathUnits="userSpaceOnUse"
       id="clipPath4980"><path
         d="m 7.2,7.8050308 285.46562,0 0,223.1999992 -285.46562,0 0,-223.1999992 z"
         id="path4982" /></clipPath><clipPath
       clipPathUnits="userSpaceOnUse"
       id="clipPath4990"><path
         d="m 7.2,7.8050308 285.46562,0 0,223.1999992 -285.46562,0 0,-223.1999992 z"
         id="path4992" /></clipPath></defs><text
     id="text4148"
     style="font-variant:normal;font-weight:normal;font-size:16.8615799px;font-family:Arial;-inkscape-font-specification:ArialMT;writing-mode:lr-tb;fill:#000000;fill-opacity:1;fill-rule:nonzero;stroke:none"
     x="0.02469958"
     y="12.069859"><tspan
       id="tspan4150"
       y="12.069859"
       x="0.02469958 302.46225">AB</tspan></text>
<text
     id="text4154"
     style="font-variant:normal;font-weight:normal;font-size:12.31483364px;font-family:Arial;-inkscape-font-specification:ArialMT;writing-mode:lr-tb;fill:#262626;fill-opacity:1;fill-rule:nonzero;stroke:none"
     x="33.002899"
     y="257.88599"><tspan
       id="tspan4156"
       y="257.88599"
       x="33.002899 39.849945 43.261154 81.572601 88.419647 91.830864 130.15463 137.00168 140.41289 178.72432 185.57137 188.98256 227.35338 234.20042 237.61163 275.92307 282.77014 286.18134">0.00.20.40.60.81.0</tspan><tspan
       id="tspan4158"
       y="247.46329"
       x="19.651144 26.498192 29.909401">0.0</tspan><tspan
       id="tspan4160"
       y="201.65211"
       x="19.651144 26.498192 29.909401">0.2</tspan><tspan
       id="tspan4162"
       y="155.84091"
       x="19.651144 26.498192 29.909401">0.4</tspan><tspan
       id="tspan4164"
       y="110.02972"
       x="19.651144 26.498192 29.909401">0.6</tspan><tspan
       id="tspan4166"
       y="64.218559"
       x="19.651144 26.498192 29.909401">0.8</tspan><tspan
       id="tspan4168"
       y="18.407406"
       x="19.651144 26.498192 29.909401">1.0</tspan></text>
<text
     id="text4170"
     style="font-variant:normal;font-weight:normal;font-size:12.31483364px;font-family:Arial;-inkscape-font-specification:ArialMT;writing-mode:lr-tb;fill:#262626;fill-opacity:1;fill-rule:nonzero;stroke:none"
     transform="matrix(0,-1,1,0,0,0)"
     x="-223.54878"
     y="13.782349"><tspan
       id="tspan4172"
       y="13.782349"
       x="-223.54878 -214.65744 -207.81041 -197.55215 -190.70511 -187.97124 -181.12416 -177.71298 -174.97906 -168.82164 -161.97461 -158.56339 -151.71635 -148.98247 -142.82506 -139.41383 -135.313 -132.57909 -125.73204 -118.885 -115.47379 -112.73991 -105.89283 -99.045792 -95.634613 -88.787537 -85.37632 -81.965141 -75.807724 -68.960648 -58.702396 -51.855358 -49.121479 -42.274403">Cumulative distribution of samples</tspan></text>
<path
     inkscape:connector-curvature="0"
     id="path4174"
     style="fill:none;stroke:#000000;stroke-width:1.5;stroke-linecap:round;stroke-linejoin:round;stroke-miterlimit:10;stroke-dasharray:none;stroke-opacity:1"
     d="m 41.5675,244.27702 2.42625,-0.39 2.4325,-0.005 2.42625,-0.01 2.43125,-0.0237 2.4275,-0.02 2.43125,-0.02 2.42625,-0.0487 2.4325,-0.0675 2.42625,-0.0788 2.4325,-0.0825 2.42625,-0.16625 2.43125,-0.2 2.4325,-0.18625 2.42625,-0.205 2.43125,-0.34625 2.4275,-0.425 2.43125,-0.57625 2.42625,-0.57125 2.4325,-0.86 2.42625,-0.66375 2.43125,-1.69875 2.4275,-1.675 2.43125,-1.885 2.4275,-2.14875 2.43125,-1.66 2.43125,-3.66125 2.4275,-3.30125 2.43125,-3.61875 2.42625,-4.40375 2.4325,-3.88125 2.42625,-5.37625 2.43125,-4.81 2.4275,-5.3075 2.43125,-5.57125 2.42625,-5.39 2.4325,-5.60125 2.42625,-5.7075 2.43125,-5.69375 2.4325,-5.77125 2.42625,-4.5175 2.4325,-6.66875 2.42625,-5.5425 2.43125,-5.70375 2.4275,-4.98 2.43125,-5.2875 2.42625,-5.36125 2.4325,-5.60625 2.42625,-5.0775 2.43125,-5.62 2.4275,-2.54875 2.43125,-8.4475 2.43125,-5.215 2.4275,-4.66375 2.43125,-5.4775 2.4275,-4.96125 2.43125,-5.04375 2.42625,-4.54625 2.4325,-5.03875 2.42625,-4.86875 2.43125,-5.54625 2.4275,-3.10125 2.43125,-3.90625 2.42625,-3.46625 2.4325,-3.16 2.43125,-3.14375 2.42625,-2.45625 2.4325,-2.88125 2.42625,-1.91875 2.43125,-1.80625 2.4275,-1.5875 2.43125,-1.1275 2.4275,-1.10375 2.43125,-0.9075 2.42625,-0.83125 2.4325,-1.06375 2.42625,-0.435 2.43125,-0.5225 2.4325,-0.45375 2.42625,-0.39125 2.43125,-0.44875 2.4275,-0.15125 2.43125,-0.27875 2.42625,-0.21875 2.4325,-0.225 2.42625,-0.14125 2.4325,-0.08875 2.42625,-0.0925 2.43125,-0.04875 2.4275,-0.03375 2.43125,-0.04875 2.43125,-0.015 2.4275,-0.025 2.43125,-0.0087 2.42625,-0.01 2.4325,-0.005 2.42625,-0.02 2.43125,0 2.4275,-0.005 2.43125,0 2.4275,-0.0925" /><path
     inkscape:connector-curvature="0"
     id="path4176"
     style="fill:none;stroke:#000000;stroke-width:1.5;stroke-linecap:butt;stroke-linejoin:round;stroke-miterlimit:10;stroke-dasharray:4.104945, 4.104945;stroke-dashoffset:0;stroke-opacity:1"
     d="m 41.5675,244.27702 2.42625,-0.0537 31.5825,0 2.43125,-0.0138 2.4275,-0.015 2.43125,-0.0538 2.42625,-0.015 2.4325,-0.0437 2.42625,-0.0538 2.43125,-0.0437 2.4275,-0.025 2.43125,-0.0725 2.4275,-0.15125 2.43125,-0.1375 2.43125,-0.375 2.4275,-0.3475 2.43125,-0.47375 2.42625,-0.36125 2.4325,-0.39 2.42625,-0.61125 2.43125,-0.65375 2.4275,-0.7375 2.43125,-0.90375 2.42625,-0.79 2.4325,-1.055 2.42625,-1.00125 2.43125,-1.1275 2.4325,-1.1375 2.42625,-1.055 2.4325,-2.01625 2.42625,-1.5575 2.43125,-1.915 2.4275,-1.64 2.43125,-1.89 2.42625,-2.15375 2.4325,-2.49 2.42625,-2.72375 2.43125,-2.90625 2.4275,-1.38625 2.43125,-5.81125 2.43125,-3.90125 2.4275,-3.935 2.43125,-4.6675 2.4275,-4.585 2.43125,-5.47875 2.42625,-5.69875 2.4325,-6.59625 2.42625,-7.03125 2.43125,-9.59 2.4275,-6.7825 2.43125,-9.145 2.42625,-9.395 2.4325,-10.14125 2.43125,-10.24375 2.42625,-9.22375 2.4325,-10.27375 2.42625,-9.03375 2.43125,-8.545 2.4275,-9.155 2.43125,-6.60125 2.4275,-6.83625 2.43125,-5.04875 2.42625,-4.6675 2.4325,-5.435 2.42625,-2.45625 2.43125,-3.0025 2.4325,-2.6125 2.42625,-2.15375 2.43125,-2.1425 2.4275,-1.08 2.43125,-1.1275 2.42625,-0.59625 2.4325,-0.75125 2.42625,-0.57125 2.4325,-0.5425 2.42625,-0.34625 2.43125,-0.3325 2.4275,-0.24875 2.43125,-0.225 2.43125,-0.12625 2.4275,-0.205 2.43125,-0.015 2.42625,-0.0825 2.4325,-0.03 2.42625,-0.015 4.85875,0 2.43125,-0.01375 2.4275,-0.18125" /><path
     inkscape:connector-curvature="0"
     id="path4178"
     style="fill:none;stroke:#000000;stroke-width:1;stroke-linecap:square;stroke-linejoin:miter;stroke-miterlimit:10;stroke-dasharray:none;stroke-opacity:1"
     d="m 41.5675,244.27702 242.935,0" /><path
     inkscape:connector-curvature="0"
     id="path4180"
     style="fill:none;stroke:#000000;stroke-width:1;stroke-linecap:square;stroke-linejoin:miter;stroke-miterlimit:10;stroke-dasharray:none;stroke-opacity:1"
     d="m 41.5675,244.27702 0,-229.0575" /><path
     inkscape:connector-curvature="0"
     id="path4182"
     style="fill:none;stroke:#000000;stroke-width:1.18429708;stroke-linecap:round;stroke-linejoin:round;stroke-miterlimit:10;stroke-dasharray:none;stroke-opacity:1"
     d="m 50.881406,28.78622 23.6877,0" /><text
     id="text4184"
     style="font-variant:normal;font-weight:normal;font-size:11.84296989px;font-family:Arial;-inkscape-font-specification:ArialMT;writing-mode:lr-tb;fill:#262626;fill-opacity:1;fill-rule:nonzero;stroke:none"
     x="84.042213"
     y="32.933315"><tspan
       id="tspan4186"
       y="32.933315"
       x="84.042213 91.929626 98.51432 104.43581 110.35729 116.94198 120.88569 127.47038 134.05507 140.63976 147.22444 150.50494 154.44865 161.03336 167.61804 170.24719 176.83185 183.41655">Background regions</tspan></text>
<path
     inkscape:connector-curvature="0"
     id="path4188"
     style="fill:none;stroke:#000000;stroke-width:1.18429708;stroke-linecap:butt;stroke-linejoin:round;stroke-miterlimit:10;stroke-dasharray:4.73718804, 4.73718804;stroke-dashoffset:0;stroke-opacity:1"
     d="m 50.881406,45.67962 23.6877,0" /><text
     id="text4190"
     style="font-variant:normal;font-weight:normal;font-size:11.84296989px;font-family:Arial;-inkscape-font-specification:ArialMT;writing-mode:lr-tb;fill:#262626;fill-opacity:1;fill-rule:nonzero;stroke:none"
     x="84.042213"
     y="49.821896"><tspan
       id="tspan4192"
       y="49.821896"
       x="84.042213 87.322723 93.90741 100.4921 107.07679 110.35729 113.63779 117.5815 124.16619 130.75089 133.38002 139.96471 146.54939">Input regions</tspan></text>
<text
     id="text4244"
     style="font-variant:normal;font-weight:normal;font-size:9.89205742px;font-family:Arial;-inkscape-font-specification:ArialMT;writing-mode:lr-tb;fill:#000000;fill-opacity:1;fill-rule:nonzero;stroke:none"
     x="129.16493"
     y="271.33655"><tspan
       id="tspan4246"
       y="271.33655"
       x="129.16493 136.85106 143.99313 146.73323 151.67926 157.17924 162.67923 165.41933 170.9193 176.4193 179.15939 181.89949 185.19356 193.98759">GC content (%)</tspan></text>
<text
     id="text4364"
     style="font-variant:normal;font-weight:normal;font-size:16.8615799px;font-family:Arial;-inkscape-font-specification:ArialMT;writing-mode:lr-tb;fill:#000000;fill-opacity:1;fill-rule:nonzero;stroke:none"
     x="0.024795705"
     y="292.07016"><tspan
       id="tspan4366"
       y="292.07016"
       x="0.024795705">C</tspan><tspan
       id="tspan4368"
       y="290.07016"
       x="302.02493">D</tspan></text>
<text
     id="text4370"
     style="font-variant:normal;font-weight:normal;font-size:12.60275936px;font-family:Arial;-inkscape-font-specification:ArialMT;writing-mode:lr-tb;fill:#262626;fill-opacity:1;fill-rule:nonzero;stroke:none"
     x="37.691612"
     y="542.3855"><tspan
       id="tspan4372"
       y="542.3855"
       x="37.691612">0</tspan><tspan
       id="tspan4374"
       y="543.586"
       x="67.291641 74.298782">10</tspan></text>
<text
     id="text4376"
     style="font-variant:normal;font-weight:normal;font-size:8.82193184px;font-family:Arial;-inkscape-font-specification:ArialMT;writing-mode:lr-tb;fill:#262626;fill-opacity:1;fill-rule:nonzero;stroke:none"
     x="81.968498"
     y="537.93951"><tspan
       id="tspan4378"
       y="537.93951"
       x="81.968498">0</tspan></text>
<text
     id="text4380"
     style="font-variant:normal;font-weight:normal;font-size:12.60275936px;font-family:Arial;-inkscape-font-specification:ArialMT;writing-mode:lr-tb;fill:#262626;fill-opacity:1;fill-rule:nonzero;stroke:none"
     x="149.15285"
     y="543.586"><tspan
       id="tspan4382"
       y="543.586"
       x="149.15285 156.15997">10</tspan></text>
<text
     id="text4384"
     style="font-variant:normal;font-weight:normal;font-size:8.82193184px;font-family:Arial;-inkscape-font-specification:ArialMT;writing-mode:lr-tb;fill:#262626;fill-opacity:1;fill-rule:nonzero;stroke:none"
     x="163.82968"
     y="537.93951"><tspan
       id="tspan4386"
       y="537.93951"
       x="163.82968">1</tspan></text>
<text
     id="text4388"
     style="font-variant:normal;font-weight:normal;font-size:12.60275936px;font-family:Arial;-inkscape-font-specification:ArialMT;writing-mode:lr-tb;fill:#262626;fill-opacity:1;fill-rule:nonzero;stroke:none"
     x="214.40555"
     y="543.586"><tspan
       id="tspan4390"
       y="543.586"
       x="214.40555 221.41266">10</tspan></text>
<text
     id="text4392"
     style="font-variant:normal;font-weight:normal;font-size:8.82193184px;font-family:Arial;-inkscape-font-specification:ArialMT;writing-mode:lr-tb;fill:#262626;fill-opacity:1;fill-rule:nonzero;stroke:none"
     x="229.08237"
     y="537.93951"><tspan
       id="tspan4394"
       y="537.93951"
       x="229.08237">2</tspan></text>
<text
     id="text4396"
     style="font-variant:normal;font-weight:normal;font-size:12.60275936px;font-family:Arial;-inkscape-font-specification:ArialMT;writing-mode:lr-tb;fill:#262626;fill-opacity:1;fill-rule:nonzero;stroke:none"
     x="279.65823"
     y="543.586"><tspan
       id="tspan4398"
       y="543.586"
       x="279.65823 286.66534">10</tspan></text>
<text
     id="text4400"
     style="font-variant:normal;font-weight:normal;font-size:8.82193184px;font-family:Arial;-inkscape-font-specification:ArialMT;writing-mode:lr-tb;fill:#262626;fill-opacity:1;fill-rule:nonzero;stroke:none"
     x="294.33505"
     y="537.93951"><tspan
       id="tspan4402"
       y="537.93951"
       x="294.33505">3</tspan></text>
<text
     id="text4404"
     style="font-variant:normal;font-weight:normal;font-size:12.60275936px;font-family:Arial;-inkscape-font-specification:ArialMT;writing-mode:lr-tb;fill:#262626;fill-opacity:1;fill-rule:nonzero;stroke:none"
     x="19.115658"
     y="531.76288"><tspan
       id="tspan4406"
       y="531.76288"
       x="19.115658 26.12278 29.613762">0.0</tspan><tspan
       id="tspan4408"
       y="484.88062"
       x="19.115658 26.12278 29.613762">0.2</tspan><tspan
       id="tspan4410"
       y="437.99832"
       x="19.115658 26.12278 29.613762">0.4</tspan><tspan
       id="tspan4412"
       y="391.11606"
       x="19.115658 26.12278 29.613762">0.6</tspan><tspan
       id="tspan4414"
       y="344.23383"
       x="19.115658 26.12278 29.613762">0.8</tspan><tspan
       id="tspan4416"
       y="297.35153"
       x="19.115658 26.12278 29.613762">1.0</tspan></text>
<text
     id="text4418"
     style="font-variant:normal;font-weight:normal;font-size:12.60275936px;font-family:Arial;-inkscape-font-specification:ArialMT;writing-mode:lr-tb;fill:#262626;fill-opacity:1;fill-rule:nonzero;stroke:none"
     transform="matrix(0,-1,1,0,0,0)"
     x="-507.28925"
     y="13.109665"><tspan
       id="tspan4420"
       y="13.109665"
       x="-507.28925 -498.19006 -491.18292 -480.68481 -473.67767 -470.87988 -463.87274 -460.38177 -457.58395 -451.28259 -444.27545 -440.78448 -433.77734 -430.97952 -424.67816 -421.18719 -416.99048 -414.19266 -407.18552 -400.17841 -396.68741 -393.88959 -386.88248 -379.87534 -376.38437 -369.37723 -365.88626 -362.39529 -356.09393 -349.08679 -338.58868 -331.58154 -328.78375 -321.77661">Cumulative distribution of samples</tspan></text>
<g
     clip-path="url(#clipPath4426)"
     id="g4424"
     transform="matrix(1.25,0,0,-1.25,-300,561.41827)"><g
       transform="translate(0,-0.865387)"
       id="g4430"><g
         id="g4432"><g
           clip-path="url(#clipPath4436)"
           id="g4434"><g
             id="g4440"><g
               transform="translate(0,450)"
               id="g4442"><path
                 inkscape:connector-curvature="0"
                 id="path4444"
                 style="fill:none;stroke:#000000;stroke-width:1.20000005;stroke-linecap:round;stroke-linejoin:round;stroke-miterlimit:10;stroke-dasharray:none;stroke-opacity:1"
                 d="m 273.234,-422.801 29,159.211 77.52,0 1.297,4.52 1.226,2.761 1.161,8.95 1.105,4.117 1.055,2.894 14.66,0 0.535,0.004 0.519,0 0.512,0.016 0.496,0.004 0.489,0.035 0.476,0.016 0.469,0.046 0.457,0.039 0.449,0.161 0.442,0.215 0.429,0.097 0.426,0.277 0.414,0.192 0.41,0.348 0.403,0.226 0.394,0.516 0.387,0.191 0.379,0.543 0.375,0.391 0.371,0.734 0.363,0.336 0.356,0.238 1.039,0 0.336,0.004 0.332,0.004 0.324,0.008 0.64,0.023 0.313,0.012 0.309,0.031 0.3,0.028 0.301,0.035 0.297,0.023 0.293,0.043 0.289,0.008 0.285,0.059 0.281,0.027 0.278,0.043 0.277,0.051 0.27,0.019 0.269,0.004 0.528,0 0.257,0.004 0.762,0 0.246,0.008 0.246,0.004 0.481,0 0.238,0.004 0.469,0 0.23,0.004 0.227,0.004" /></g></g></g></g></g><g
       transform="translate(0,-0.865387)"
       id="g4446"><g
         id="g4448"><g
           clip-path="url(#clipPath4452)"
           id="g4450"><g
             id="g4456"><g
               transform="translate(0,450)"
               id="g4458"><path
                 inkscape:connector-curvature="0"
                 id="path4460"
                 style="fill:none;stroke:#000000;stroke-width:1.20000005;stroke-linecap:butt;stroke-linejoin:round;stroke-miterlimit:10;stroke-dasharray:3.360736, 3.360736;stroke-dashoffset:0;stroke-opacity:1"
                 d="m 273.234,-422.801 26.68,87.602 79.246,0 1.227,7.121 1.16,4.551 1.105,14.847 1.055,13.438 1.008,11.183 15.715,0 0.488,0.036 0.477,0.054 0.468,0.035 0.457,0 0.45,0.196 0.441,0.191 0.43,0.559 0.425,0.215 0.414,0.808 0.411,0.434 0.402,1.386 0.395,0.852 0.386,1.813 0.379,1.386 0.375,2.867 0.371,1.649 0.363,0 0.356,3.836 0.352,2.148 0.347,5.324 0.34,3.094 0.336,8.946 0.332,4.902 0.324,2.683 0.953,0 0.309,0.024 0.305,0.035 0.296,0 0.297,0.16 0.293,0.102 0.289,0.179 0.286,0.137 0.281,0.41 0.277,0.262 0.277,0.594 0.27,0.363 0.27,0.488 0.265,0.364 0.262,0.843 0.258,0 0.258,0.34 0.253,0.707 0.25,0.227 0.247,0.101 0.726,0 0.238,0.012 0.7,0 0.226,0.024" /></g></g></g></g></g></g><path
     inkscape:connector-curvature="0"
     id="path4464"
     style="fill:none;stroke:#000000;stroke-width:1;stroke-linecap:square;stroke-linejoin:miter;stroke-miterlimit:10;stroke-dasharray:none;stroke-opacity:1"
     d="m 41.5425,528.50077 248.61875,0" /><path
     inkscape:connector-curvature="0"
     id="path4466"
     style="fill:none;stroke:#000000;stroke-width:1;stroke-linecap:square;stroke-linejoin:miter;stroke-miterlimit:10;stroke-dasharray:none;stroke-opacity:1"
     d="m 41.5425,528.50077 0,-234.40875" /><text
     id="text4254"
     style="font-variant:normal;font-weight:normal;font-size:12.31806374px;font-family:Arial;-inkscape-font-specification:ArialMT;writing-mode:lr-tb;fill:#262626;fill-opacity:1;fill-rule:nonzero;stroke:none"
     x="333.75821"
     y="258.2858"><tspan
       id="tspan4256"
       y="258.2858"
       x="333.75821 337.86011 344.70892">-10</tspan></text>
<text
     id="text4258"
     style="font-variant:normal;font-weight:normal;font-size:8.62264538px;font-family:Arial;-inkscape-font-specification:ArialMT;writing-mode:lr-tb;fill:#262626;fill-opacity:1;fill-rule:nonzero;stroke:none"
     x="352.20551"
     y="252.76694"><tspan
       id="tspan4260"
       y="252.76694"
       x="352.20551">3</tspan></text>
<text
     id="text4262"
     style="font-variant:normal;font-weight:normal;font-size:12.31806374px;font-family:Arial;-inkscape-font-specification:ArialMT;writing-mode:lr-tb;fill:#262626;fill-opacity:1;fill-rule:nonzero;stroke:none"
     x="397.53683"
     y="258.2858"><tspan
       id="tspan4264"
       y="258.2858"
       x="397.53683 401.63876 408.48758">-10</tspan></text>
<text
     id="text4266"
     style="font-variant:normal;font-weight:normal;font-size:8.62264538px;font-family:Arial;-inkscape-font-specification:ArialMT;writing-mode:lr-tb;fill:#262626;fill-opacity:1;fill-rule:nonzero;stroke:none"
     x="415.98416"
     y="252.76694"><tspan
       id="tspan4268"
       y="252.76694"
       x="415.98416">2</tspan></text>
<text
     id="text4270"
     style="font-variant:normal;font-weight:normal;font-size:12.31806374px;font-family:Arial;-inkscape-font-specification:ArialMT;writing-mode:lr-tb;fill:#262626;fill-opacity:1;fill-rule:nonzero;stroke:none"
     x="461.31546"
     y="258.2858"><tspan
       id="tspan4272"
       y="258.2858"
       x="461.31546 465.41736 472.2662">-10</tspan></text>
<text
     id="text4274"
     style="font-variant:normal;font-weight:normal;font-size:8.62264538px;font-family:Arial;-inkscape-font-specification:ArialMT;writing-mode:lr-tb;fill:#262626;fill-opacity:1;fill-rule:nonzero;stroke:none"
     x="479.76279"
     y="252.76694"><tspan
       id="tspan4276"
       y="252.76694"
       x="479.76279">1</tspan></text>
<text
     id="text4278"
     style="font-variant:normal;font-weight:normal;font-size:12.31806374px;font-family:Arial;-inkscape-font-specification:ArialMT;writing-mode:lr-tb;fill:#262626;fill-opacity:1;fill-rule:nonzero;stroke:none"
     x="541.32739"
     y="258.2858"><tspan
       id="tspan4280"
       y="258.2858"
       x="541.32739 545.42932 552.27814">-10</tspan></text>
<text
     id="text4282"
     style="font-variant:normal;font-weight:normal;font-size:8.62264538px;font-family:Arial;-inkscape-font-specification:ArialMT;writing-mode:lr-tb;fill:#262626;fill-opacity:1;fill-rule:nonzero;stroke:none"
     x="559.77472"
     y="252.76694"><tspan
       id="tspan4284"
       y="252.76694"
       x="559.77472">0</tspan></text>
<text
     id="text4286"
     style="font-variant:normal;font-weight:normal;font-size:12.31806374px;font-family:Arial;-inkscape-font-specification:ArialMT;writing-mode:lr-tb;fill:#262626;fill-opacity:1;fill-rule:nonzero;stroke:none"
     x="585.31415"
     y="257.11249"><tspan
       id="tspan4288"
       y="257.11249"
       x="585.31415">0</tspan><tspan
       id="tspan4290"
       y="246.72978"
       x="324.1561 331.00494 334.41702">0.0</tspan><tspan
       id="tspan4292"
       y="200.90657"
       x="324.1561 331.00494 334.41702">0.2</tspan><tspan
       id="tspan4294"
       y="155.08339"
       x="324.1561 331.00494 334.41702">0.4</tspan><tspan
       id="tspan4296"
       y="109.26018"
       x="324.1561 331.00494 334.41702">0.6</tspan><tspan
       id="tspan4298"
       y="63.437008"
       x="324.1561 331.00494 334.41702">0.8</tspan><tspan
       id="tspan4300"
       y="17.613796"
       x="324.1561 331.00494 334.41702">1.0</tspan></text>
<text
     id="text4302"
     style="font-variant:normal;font-weight:normal;font-size:12.31806374px;font-family:Arial;-inkscape-font-specification:ArialMT;writing-mode:lr-tb;fill:#262626;fill-opacity:1;fill-rule:nonzero;stroke:none"
     transform="matrix(0,-1,1,0,0,0)"
     x="-222.80899"
     y="318.28577"><tspan
       id="tspan4304"
       y="318.28577"
       x="-222.80899 -213.91537 -207.0665 -196.80557 -189.95671 -187.22211 -180.37328 -176.96118 -174.22658 -168.06752 -161.21869 -157.80659 -150.95772 -148.22311 -142.0641 -138.65196 -134.55006 -131.81546 -124.96662 -118.11775 -114.70566 -111.97105 -105.12222 -98.273392 -94.861259 -88.012428 -84.600296 -81.18824 -75.029182 -68.180351 -57.919392 -51.07056 -48.335918 -41.487087">Cumulative distribution of samples</tspan></text>
<g
     id="g4306"
     transform="matrix(1.2170178,0,0,-1.2170178,304.57302,273.14032)"><g
       id="g4308"
       clip-path="url(#clipPath4310)"><g
         id="g4314"
         transform="translate(0,-0.865387)"><g
           id="g4316"><g
             id="g4318"
             clip-path="url(#clipPath4320)"><g
               id="g4324"><g
                 id="g4326"
                 transform="translate(0,450)"><path
                   inkscape:connector-curvature="0"
                   d="m 82.527,-424.816 0.231,0.004 0.23,0 0.235,0.003 0.472,0 0.243,0.004 0.988,0 0.254,0.004 0.258,0.004 0.789,0 0.269,0.004 0.274,0 0.273,0.004 0.562,0 0.29,0.012 0.289,0 0.293,0.011 0.296,0.004 0.301,0.008 0.309,0.004 0.308,0.012 0.313,0.004 0.32,0.004 0.321,0.011 0.328,0.016 0.332,0.015 0.34,0.012 0.339,0 0.348,0.012 0.352,0.019 0.359,0.024 0.363,0.027 0.371,0.02 0.375,0.027 0.383,0.02 0.391,0.043 0.394,0.035 0.403,0.051 0.41,0.039 0.418,0.047 0.426,0.054 0.433,0.047 0.442,0.074 0.453,0.078 0.457,0.071 0.472,0.043 0.477,0.09 0.492,0.121 0.5,0.117 0.512,0.172 0.519,0.195 0.539,0.219 0.547,0.207 0.563,0.304 0.574,0.25 0.594,0.321 0.605,0.328 0.625,0.387 0.641,0.445 0.66,0.457 0.68,0.602 0.699,0.691 0.723,0.742 0.746,0.809 0.773,0.968 0.797,1.11 0.828,1.219 0.86,1.281 0.89,1.488 0.93,1.68 0.969,1.953 1.011,1.887 1.059,2.492 1.109,2.64 1.168,2.832 1.231,3.305 1.3,3.664 1.383,4.231 1.469,4.808 1.57,5.524 1.684,5.609 1.824,6.524 1.981,6.511 2.168,7.676 2.398,8.652 2.68,6.09 59.082,0 34.679,98.789"
                   style="fill:none;stroke:#000000;stroke-width:1.20000005;stroke-linecap:round;stroke-linejoin:round;stroke-miterlimit:10;stroke-dasharray:none;stroke-opacity:1"
                   id="path4328" /></g></g></g></g></g><g
         id="g4330"
         transform="translate(0,-0.865387)"><g
           id="g4332"><g
             id="g4334"
             clip-path="url(#clipPath4336)"><g
               id="g4340"><g
                 id="g4342"
                 transform="translate(0,450)"><path
                   inkscape:connector-curvature="0"
                   d="m 77.281,-424.816 0.231,0.011 1.918,0 0.25,0.012 0.769,0 0.266,0.012 0.808,0 0.274,0.011 0.562,0 0.286,0.012 0.293,0.012 0.292,0 0.297,0.012 0.301,0.011 0.305,0.024 0.312,0 0.313,0.008 0.64,0.023 0.329,0 0.332,0.012 0.336,0.011 0.343,0.036 0.348,0 0.352,0.035 0.359,0.043 0.363,0.023 0.371,0.024 0.375,0.082 0.383,0.031 0.391,0.059 0.394,0.078 0.403,0.082 0.41,0.066 0.418,0.137 0.425,0.148 0.434,0.141 0.441,0.203 0.454,0.113 0.457,0.129 0.468,0.149 0.481,0.191 0.488,0.23 0.5,0.196 0.512,0.297 0.523,0.273 0.535,0.34 0.551,0.332 0.563,0.469 0.574,0.41 0.594,0.492 0.605,0.824 0.625,0.707 0.641,0.95 0.66,0.933 0.68,0.996 0.699,1.063 0.723,1.175 0.746,1.543 0.769,1.758 0.801,1.989 0.828,1.746 0.859,2.168 0.891,2.515 0.93,2.637 0.968,2.914 1.012,3.336 1.059,3.414 1.109,4.109 1.168,4.34 1.231,5.176 1.3,5.758 1.379,5.433 1.469,6.02 1.57,6.387 1.688,6.898 1.824,7.629 1.981,7.777 2.168,8.246 2.398,8.18 2.68,8.965 3.039,9.195 3.507,2.602 48.793,0 43.668,55.898"
                   style="fill:none;stroke:#000000;stroke-width:1.20000005;stroke-linecap:butt;stroke-linejoin:round;stroke-miterlimit:10;stroke-dasharray:3.373838, 3.373838;stroke-dashoffset:0;stroke-opacity:1"
                   id="path4344" /></g></g></g></g></g></g></g><path
     inkscape:connector-curvature="0"
     id="path4348"
     style="fill:none;stroke:#000000;stroke-width:0.97361422;stroke-linecap:square;stroke-linejoin:miter;stroke-miterlimit:10;stroke-dasharray:none;stroke-opacity:1"
     d="m 346.07576,243.54488 243.00316,0" /><path
     inkscape:connector-curvature="0"
     id="path4350"
     style="fill:none;stroke:#000000;stroke-width:0.97361422;stroke-linecap:square;stroke-linejoin:miter;stroke-miterlimit:10;stroke-dasharray:none;stroke-opacity:1"
     d="m 346.07576,243.54488 0,-229.118197" /><text
     id="text4480"
     style="font-variant:normal;font-weight:normal;font-size:9.89156342px;font-family:Arial;-inkscape-font-specification:ArialMT;writing-mode:lr-tb;fill:#000000;fill-opacity:1;fill-rule:nonzero;stroke:none"
     x="398.31821"
     y="271.05869"><tspan
       id="tspan4482"
       y="271.05869"
       x="398.31821 406.55792 408.75385 414.25354 416.44946 424.71881 430.21851 438.45816 441.19815 447.23203 450.55557 456.05527 461.55499 464.29495 470.88272 476.38245 481.88214 485.20572 490.70541 495.65125 501.13113 504.42502 509.37079 514.31659 519.81635 522.01227 524.75214 532.99188 538.52124 540.71716">Minimum Free Energy (kcal/mol)</tspan></text>
<g
     clip-path="url(#clipPath4980)"
     id="g4978"
     transform="matrix(1.1512222,0,0,-1.1512222,280.04099,537.78704)"><path
       inkscape:connector-curvature="0"
       id="path4984"
       style="fill:none;stroke:#000000;stroke-width:2;stroke-linecap:butt;stroke-linejoin:miter;stroke-miterlimit:10;stroke-dasharray:1, 3;stroke-dashoffset:0;stroke-opacity:1"
       d="m 118.8,26.607112 c 24.6103,0 48.21593,9.777774 65.61804,27.179881 17.40211,17.402107 27.17988,41.007742 27.17988,65.618037 0,24.6103 -9.77777,48.21593 -27.17988,65.61804 -17.40211,17.4021 -41.00774,27.17988 -65.61804,27.17988 -24.610296,0 -48.215931,-9.77778 -65.618038,-27.17988 -17.402107,-17.40211 -27.179881,-41.00774 -27.179881,-65.61804 0,-24.610295 9.777774,-48.21593 27.179881,-65.618037 C 70.584069,36.384886 94.189704,26.607112 118.8,26.607112 l 0,0 z" /></g><g
     clip-path="url(#clipPath4990)"
     id="g4988"
     transform="matrix(1.1512222,0,0,-1.1512222,280.04099,537.78704)"><path
       inkscape:connector-curvature="0"
       id="path4994"
       style="fill:none;stroke:#000000;stroke-width:2;stroke-linecap:butt;stroke-linejoin:miter;stroke-miterlimit:10;stroke-dasharray:6, 6;stroke-dashoffset:0;stroke-opacity:1"
       d="m 201.01922,46.560711 c 19.31854,0 37.84844,7.675338 51.50871,21.335608 13.66027,13.66027 21.33561,32.190171 21.33561,51.508711 0,19.31854 -7.67534,37.84844 -21.33561,51.50871 -13.66027,13.66027 -32.19017,21.33561 -51.50871,21.33561 -19.31854,0 -37.84844,-7.67534 -51.50871,-21.33561 -13.66027,-13.66027 -21.33561,-32.19017 -21.33561,-51.50871 0,-19.31854 7.67534,-37.848441 21.33561,-51.508711 13.66027,-13.66027 32.19017,-21.335608 51.50871,-21.335608 l 0,0 z" /></g><text
     id="text4998"
     style="font-variant:normal;font-weight:normal;font-size:21.88911247px;font-family:Arial;-inkscape-font-specification:ArialMT;writing-mode:lr-tb;fill:#262626;fill-opacity:1;fill-rule:nonzero;stroke:none"
     x="355.58948"
     y="403.17563"><tspan
       id="tspan5000"
       y="403.17563"
       x="355.58948 367.75983 379.93015 392.10049">6065</tspan></text>
<text
     id="text5002"
     style="font-variant:normal;font-weight:normal;font-size:21.88911247px;font-family:Arial;-inkscape-font-specification:ArialMT;writing-mode:lr-tb;fill:#262626;fill-opacity:1;fill-rule:nonzero;stroke:none"
     x="536.35724"
     y="403.17563"><tspan
       id="tspan5004"
       y="403.17563"
       x="536.35724 548.52759 560.698 572.86829">2694</tspan></text>
<text
     id="text5006"
     style="font-variant:normal;font-weight:normal;font-size:21.88911247px;font-family:Arial;-inkscape-font-specification:ArialMT;writing-mode:lr-tb;fill:#262626;fill-opacity:1;fill-rule:nonzero;stroke:none"
     x="454.49725"
     y="403.17563"><tspan
       id="tspan5008"
       y="403.17563"
       x="454.49725 466.6676 478.83795 491.0083">2718</tspan></text>
<text
     id="text5010"
     style="font-variant:normal;font-weight:normal;font-size:13.81466675px;font-family:Arial;-inkscape-font-specification:ArialMT;writing-mode:lr-tb;fill:#000000;fill-opacity:1;fill-rule:nonzero;stroke:none"
     x="398.51062"
     y="526.58423"><tspan
       id="tspan5012"
       y="526.58423"
       x="398.51062"
       style="text-align:center;text-anchor:middle;fill:#000000">Binding sites with positive</tspan><tspan
       y="543.85254"
       x="398.51062"
       id="tspan5157"
       style="text-align:center;text-anchor:middle;fill:#000000">G-quadruplex score</tspan></text>
<text
     id="text5014"
     style="font-variant:normal;font-weight:normal;font-size:13.81466675px;font-family:Arial;-inkscape-font-specification:ArialMT;text-align:center;writing-mode:lr-tb;text-anchor:middle;fill:#000000;fill-opacity:1;fill-rule:nonzero;stroke:none"
     x="538.01581"
     y="503.45129"><tspan
       id="tspan5016"
       y="503.45129"
       x="538.01581">Binding sites with</tspan><tspan
       y="520.7196"
       x="538.01581"
       id="tspan5159">GCAUG 5-mer</tspan></text>
<g
     id="g5655"
     transform="matrix(1.25,0,0,-1.25,-4.5401976e-8,561.41827)"><path
       inkscape:connector-curvature="0"
       d="m 283.90512,427.70564 18.95017,0"
       style="fill:none;stroke:#000000;stroke-width:0.94743764;stroke-linecap:round;stroke-linejoin:round;stroke-miterlimit:10;stroke-dasharray:none;stroke-opacity:1"
       id="path4182-0" /><text
       transform="scale(1,-1)"
       y="-424.388"
       x="310.43399"
       style="font-variant:normal;font-weight:normal;font-size:9.47437572px;font-family:Arial;-inkscape-font-specification:ArialMT;writing-mode:lr-tb;fill:#262626;fill-opacity:1;fill-rule:nonzero;stroke:none"
       id="text4184-9"><tspan
         x="310.43399 316.74393 322.01169 326.74887 331.48605 336.75381 339.90878 345.17651 350.44427 355.71204 360.97977 363.60419 366.75916 372.02692 377.29465 379.39798 384.66571 389.93347"
         y="-424.388"
         id="tspan4186-3">Background regions</tspan></text>
<path
       inkscape:connector-curvature="0"
       d="m 283.90512,414.19092 18.95017,0"
       style="fill:none;stroke:#000000;stroke-width:0.94743764;stroke-linecap:butt;stroke-linejoin:round;stroke-miterlimit:10;stroke-dasharray:3.78975043, 3.78975043;stroke-dashoffset:0;stroke-opacity:1"
       id="path4188-6" /><text
       transform="scale(1,-1)"
       y="-410.87714"
       x="310.43399"
       style="font-variant:normal;font-weight:normal;font-size:9.47437572px;font-family:Arial;-inkscape-font-specification:ArialMT;writing-mode:lr-tb;fill:#262626;fill-opacity:1;fill-rule:nonzero;stroke:none"
       id="text4190-0"><tspan
         x="310.43399 313.05841 318.32617 323.5939 328.86166 331.48605 334.11047 337.26541 342.53317 347.80093 349.90424 355.172 360.43973"
         y="-410.87714"
         id="tspan4192-6">Input regions</tspan></text>
</g><path
     inkscape:connector-curvature="0"
     id="path4182-2"
     style="fill:none;stroke:#000000;stroke-width:1.18429708;stroke-linecap:round;stroke-linejoin:round;stroke-miterlimit:10;stroke-dasharray:none;stroke-opacity:1"
     d="m 142.8814,486.78622 23.68771,0" /><text
     id="text4184-6"
     style="font-variant:normal;font-weight:normal;font-size:11.84296989px;font-family:Arial;-inkscape-font-specification:ArialMT;writing-mode:lr-tb;fill:#262626;fill-opacity:1;fill-rule:nonzero;stroke:none"
     x="176.04193"
     y="490.93335"><tspan
       id="tspan4186-1"
       y="490.93335"
       x="176.04193 183.92932 190.51402 196.4355 202.35701 208.94168 212.88539 219.47008 226.05476 232.63947 239.22415 242.50465 246.44836 253.03307 259.61774 262.24689 268.83154 275.41626">Background regions</tspan></text>
<path
     inkscape:connector-curvature="0"
     id="path4188-8"
     style="fill:none;stroke:#000000;stroke-width:1.18429708;stroke-linecap:butt;stroke-linejoin:round;stroke-miterlimit:10;stroke-dasharray:4.73718804, 4.73718804;stroke-dashoffset:0;stroke-opacity:1"
     d="m 142.8814,503.67962 23.68771,0" /><text
     id="text4190-7"
     style="font-variant:normal;font-weight:normal;font-size:11.84296989px;font-family:Arial;-inkscape-font-specification:ArialMT;writing-mode:lr-tb;fill:#262626;fill-opacity:1;fill-rule:nonzero;stroke:none"
     x="176.04193"
     y="507.8219"><tspan
       id="tspan4192-9"
       y="507.8219"
       x="176.04193 179.32243 185.90712 192.49179 199.07649 202.35701 205.6375 209.58121 216.16591 222.75058 225.37971 231.96442 238.5491">Input regions</tspan></text>
<text
     id="text4480-2"
     style="font-variant:normal;font-weight:normal;font-size:12.43923092px;font-family:Arial;-inkscape-font-specification:ArialMT;writing-mode:lr-tb;fill:#000000;fill-opacity:1;fill-rule:nonzero;stroke:none"
     x="62.182644"
     y="558.52252"><tspan
       id="tspan4482-0"
       x="62.182644"
       y="558.52252">G-quadruplex score (QGRS mapper)</tspan></text>
</svg>