<?xml version="1.0" encoding="UTF-8" standalone="no"?>
<svg
   xmlns:dc="http://purl.org/dc/elements/1.1/"
   xmlns:cc="http://creativecommons.org/ns#"
   xmlns:rdf="http://www.w3.org/1999/02/22-rdf-syntax-ns#"
   xmlns:svg="http://www.w3.org/2000/svg"
   xmlns="http://www.w3.org/2000/svg"
   xmlns:xlink="http://www.w3.org/1999/xlink"
   id="svg2"
   width="240.94489pt"
   viewBox="0 0 240.94489 204.14403"
   version="1.1"
   height="204.14403pt">
  <metadata
     id="metadata121">
    <rdf:RDF>
      <cc:Work
         rdf:about="">
        <dc:format>image/svg+xml</dc:format>
        <dc:type
           rdf:resource="http://purl.org/dc/dcmitype/StillImage" />
        <dc:title></dc:title>
      </cc:Work>
    </rdf:RDF>
  </metadata>
  <defs
     style="stroke-linecap:butt;stroke-linejoin:round;stroke-miterlimit:100000"
     id="defs4">
    <style
       id="style6"
       type="text/css">
*{stroke-linecap:butt;stroke-linejoin:round;stroke-miterlimit:100000;}
  </style>
    <defs
       id="defs29">
      <path
         d="m 37.25,0 -8.78125,0 0,56 q -3.171875,-3.015625 -8.328125,-6.046875 -5.15625,-3.03125 -9.25,-4.546875 l 0,8.5 q 7.375,3.46875 12.890625,8.390625 5.515625,4.9375 7.8125,9.578125 l 5.65625,0 z"
         id="ArialMT-31"
         style="stroke-linecap:butt;stroke-linejoin:round;stroke-miterlimit:100000" />
      <path
         d="m 32.328125,0 0,17.140625 -31.0625,0 0,8.0625 32.671875,46.375 7.171875,0 0,-46.375 9.671875,0 0,-8.0625 -9.671875,0 0,-17.140625 z m 0,25.203125 0,32.265625 L 9.90625,25.203125 Z"
         id="ArialMT-34"
         style="stroke-linecap:butt;stroke-linejoin:round;stroke-miterlimit:100000" />
    </defs>
  </defs>
  <defs
     id="defs114">
    <clipPath
       style="stroke-linecap:butt;stroke-linejoin:round;stroke-miterlimit:100000"
       id="pa824910e40">
      <rect
         style="stroke-linecap:butt;stroke-linejoin:round;stroke-miterlimit:100000"
         id="rect117"
         y="20.935625"
         x="7.1999998"
         width="297.28445"
         height="223.2" />
    </clipPath>
  </defs>
  <g
     transform="matrix(0.92496977,0,0,0.92496977,-23.477683,-36.182721)"
     style="stroke:#000000;stroke-width:3.45957269;stroke-linecap:butt;stroke-linejoin:round;stroke-miterlimit:100000"
     id="patch_5">
    <path
       id="path23"
       style="fill:none;stroke:#000000;stroke-width:3.45957269;stroke-linecap:butt;stroke-linejoin:miter;stroke-miterlimit:100000"
       d="m 118.8,224.23047 c 24.31776,0 47.6428,-9.66155 64.83805,-26.8568 17.19525,-17.19525 26.8568,-40.52029 26.8568,-64.83805 0,-24.31775 -9.66155,-47.642792 -26.8568,-64.838044 C 166.4428,50.502325 143.11776,40.840777 118.8,40.840777 c -24.317758,0 -47.642797,9.661548 -64.838049,26.856799 C 36.7667,84.892828 27.105152,108.21787 27.105152,132.53562 c 0,24.31776 9.661548,47.6428 26.856799,64.83805 17.195252,17.19525 40.520291,26.8568 64.838049,26.8568 l 0,0 z"
       clip-path="url(#pa824910e40)" />
  </g>
  <g
     transform="matrix(0.92496977,0,0,0.92496977,-23.477683,-36.182721)"
     style="stroke:#000000;stroke-width:3.45957269;stroke-linecap:butt;stroke-linejoin:round;stroke-miterlimit:100000"
     id="patch_6">
    <path
       id="path26"
       style="fill:none;stroke:#000000;stroke-width:3.45957269;stroke-linecap:butt;stroke-linejoin:miter;stroke-miterlimit:100000;stroke-dasharray:6, 6;stroke-dashoffset:0"
       d="m 192.88444,224.23047 c 24.31776,0 47.6428,-9.66155 64.83805,-26.8568 17.19525,-17.19525 26.8568,-40.52029 26.8568,-64.83805 0,-24.31775 -9.66155,-47.642792 -26.8568,-64.838044 -17.19525,-17.195251 -40.52029,-26.856799 -64.83805,-26.856799 -24.31776,0 -47.6428,9.661548 -64.83805,26.856799 -17.19525,17.195252 -26.8568,40.520294 -26.8568,64.838044 0,24.31776 9.66155,47.6428 26.8568,64.83805 17.19525,17.19525 40.52029,26.8568 64.83805,26.8568 l 0,0 z"
       clip-path="url(#pa824910e40)" />
  </g>
  <g
     style="fill:#000000;stroke-linecap:butt;stroke-linejoin:round;stroke-miterlimit:100000"
     transform="matrix(0.35478564,0,0,-0.35478564,15.334032,96.654935)"
     id="g5362">
    <use
       xlink:href="#ArialMT-31"
       id="use35"
       style="stroke-linecap:butt;stroke-linejoin:round;stroke-miterlimit:100000;fill:#000000"
       x="0"
       y="0"
       width="100%"
       height="100%" />
    <use
       x="55.615234"
       xlink:href="#ArialMT-34"
       id="use37"
       style="stroke-linecap:butt;stroke-linejoin:round;stroke-miterlimit:100000;fill:#000000"
       y="0"
       width="100%"
       height="100%" />
  </g>
  <g
     transform="matrix(3.4864642,0,0,3.4864642,-659.23817,-374.76303)"
     style="stroke-linecap:butt;stroke-linejoin:round;stroke-miterlimit:100000;fill:#000000"
     id="text_2">
    <!-- 3 -->
    <defs
       id="defs40">
      <path
         style="stroke-linecap:butt;stroke-linejoin:round;stroke-miterlimit:100000"
         id="ArialMT-33"
         d="m 4.203125,18.890625 8.78125,1.171875 Q 14.5,12.59375 18.140625,9.296875 21.78125,6 27,6 33.203125,6 37.46875,10.296875 41.75,14.59375 41.75,20.953125 q 0,6.046875 -3.953125,9.96875 -3.953125,3.9375 -10.0625,3.9375 -2.484375,0 -6.203125,-0.96875 l 0.984375,7.71875 Q 23.390625,41.5 23.921875,41.5 q 5.625,0 10.109375,2.921875 4.5,2.9375 4.5,9.046875 0,4.828125 -3.28125,8 -3.265625,3.1875 -8.4375,3.1875 -5.125,0 -8.546875,-3.234375 -3.421875,-3.21875 -4.390625,-9.65625 l -8.796875,1.5625 q 1.609375,8.828125 7.3125,13.6875 5.71875,4.859375 14.21875,4.859375 5.859375,0 10.78125,-2.515625 4.9375,-2.515625 7.546875,-6.859375 2.625,-4.34375 2.625,-9.234375 0,-4.625 -2.5,-8.4375 -2.484375,-3.8125 -7.359375,-6.0625 6.34375,-1.453125 9.859375,-6.078125 3.515625,-4.609375 3.515625,-11.546875 0,-9.375 -6.84375,-15.890625 -6.828125,-6.515625 -17.28125,-6.515625 -9.421875,0 -15.65625,5.609375 -6.21875,5.625 -7.09375,14.546875" />
    </defs>
    <g
       id="g43"
       transform="matrix(0.1,0,0,-0.1,244.7566,135.12078)"
       style="fill:#000000;stroke-linecap:butt;stroke-linejoin:round;stroke-miterlimit:100000">
      <use
         height="100%"
         width="100%"
         y="0"
         x="0"
         style="stroke-linecap:butt;stroke-linejoin:round;stroke-miterlimit:100000;fill:#000000"
         id="use45"
         xlink:href="#ArialMT-33" />
    </g>
  </g>
  <g
     transform="matrix(3.4887,0,0,3.4887,-423.64988,-375.05342)"
     style="stroke-linecap:butt;stroke-linejoin:round;stroke-miterlimit:100000;fill:#000000"
     id="text_3">
    <!-- 20 -->
    <defs
       id="defs48">
      <path
         style="stroke-linecap:butt;stroke-linejoin:round;stroke-miterlimit:100000"
         id="ArialMT-30"
         d="m 4.15625,35.296875 q 0,12.703125 2.609375,20.4375 2.609375,7.75 7.75,11.9375 5.15625,4.203125 12.96875,4.203125 5.765625,0 10.109375,-2.328125 4.34375,-2.3125 7.171875,-6.6875 Q 47.609375,58.5 49.21875,52.21875 q 1.609375,-6.265625 1.609375,-16.921875 0,-12.59375 -2.59375,-20.328125 Q 45.65625,7.234375 40.5,3 35.359375,-1.21875 27.484375,-1.21875 q -10.34375,0 -16.25,7.421875 -7.078125,8.9375 -7.078125,29.09375 m 9.03125,0 q 0,-17.625 4.125,-23.46875 Q 21.4375,6 27.484375,6 q 6.0625,0 10.1875,5.859375 4.125,5.859375 4.125,23.4375 0,17.6875 -4.125,23.484375 -4.125,5.8125 -10.28125,5.8125 -6.046875,0 -9.671875,-5.125 Q 13.1875,52.9375 13.1875,35.296875" />
      <path
         style="stroke-linecap:butt;stroke-linejoin:round;stroke-miterlimit:100000"
         id="ArialMT-32"
         d="M 50.34375,8.453125 50.34375,0 3.03125,0 Q 2.9375,3.171875 4.046875,6.109375 5.859375,10.9375 9.828125,15.625 13.8125,20.3125 21.34375,26.46875 q 11.671875,9.5625 15.765625,15.15625 4.109375,5.59375 4.109375,10.578125 0,5.21875 -3.75,8.796875 -3.734375,3.59375 -9.734375,3.59375 -6.34375,0 -10.15625,-3.8125 Q 13.765625,56.984375 13.71875,50.25 L 4.6875,51.171875 q 0.921875,10.109375 6.96875,15.40625 6.0625,5.296875 16.28125,5.296875 10.296875,0 16.296875,-5.71875 Q 50.25,60.453125 50.25,52 50.25,47.703125 48.484375,43.546875 46.734375,39.40625 42.65625,34.8125 38.578125,30.21875 29.109375,22.21875 21.1875,15.578125 18.9375,13.203125 q -2.234375,-2.359375 -3.703125,-4.75 z" />
    </defs>
    <g
       id="g52"
       transform="matrix(0.1,0,0,-0.1,150.28128,135.12078)"
       style="fill:#000000;stroke-linecap:butt;stroke-linejoin:round;stroke-miterlimit:100000">
      <use
         height="100%"
         width="100%"
         y="0"
         x="0"
         style="stroke-linecap:butt;stroke-linejoin:round;stroke-miterlimit:100000;fill:#000000"
         id="use54"
         xlink:href="#ArialMT-32" />
      <use
         height="100%"
         width="100%"
         y="0"
         style="stroke-linecap:butt;stroke-linejoin:round;stroke-miterlimit:100000;fill:#000000"
         id="use56"
         xlink:href="#ArialMT-30"
         x="55.615234" />
    </g>
  </g>
  <text
     id="text7988"
     y="187.6757"
     x="56.746803"
     style="font-style:normal;font-weight:normal;font-size:26.50010109px;line-height:125%;font-family:sans-serif;text-align:center;letter-spacing:0px;word-spacing:0px;text-anchor:middle;fill:#000000;fill-opacity:1;stroke:none;stroke-width:1px;stroke-linecap:butt;stroke-linejoin:miter;stroke-miterlimit:100000;stroke-opacity:1"
     xml:space="preserve"><tspan
       id="tspan7992"
       y="187.6757"
       x="56.746803"
       style="font-style:normal;font-variant:normal;font-weight:normal;font-stretch:normal;font-size:11.04453373px;font-family:Arial;-inkscape-font-specification:Arial;stroke:none;stroke-linecap:butt;stroke-linejoin:round;stroke-miterlimit:100000;stroke-opacity:1">RBPs with enrichment</tspan><tspan
       id="tspan5236"
       y="201.5354"
       x="56.746803"
       style="font-style:normal;font-variant:normal;font-weight:normal;font-stretch:normal;font-size:11.04453373px;font-family:Arial;-inkscape-font-specification:Arial;stroke:none;stroke-linecap:butt;stroke-linejoin:round;stroke-miterlimit:100000;stroke-opacity:1">for G-quadruplex score</tspan></text>
  <text
     id="text7988-7-3"
     y="188.14348"
     x="184.56703"
     style="font-style:normal;font-weight:normal;font-size:26.50010109px;line-height:125%;font-family:sans-serif;text-align:center;letter-spacing:0px;word-spacing:0px;text-anchor:middle;fill:#000000;fill-opacity:1;stroke:none;stroke-width:1px;stroke-linecap:butt;stroke-linejoin:miter;stroke-miterlimit:100000;stroke-opacity:1"
     xml:space="preserve"><tspan
       id="tspan8484"
       y="188.14348"
       x="186.10458"
       style="font-style:normal;font-variant:normal;font-weight:normal;font-stretch:normal;font-size:11.04453373px;font-family:Arial;-inkscape-font-specification:Arial;stroke:none;stroke-linecap:butt;stroke-linejoin:round;stroke-miterlimit:100000;stroke-opacity:1">RBPs with enrichment </tspan><tspan
       id="tspan5240"
       y="202.00317"
       x="184.56703"
       style="font-style:normal;font-variant:normal;font-weight:normal;font-stretch:normal;font-size:11.04453373px;font-family:Arial;-inkscape-font-specification:Arial;stroke:none;stroke-linecap:butt;stroke-linejoin:round;stroke-miterlimit:100000;stroke-opacity:1">for GG repeats</tspan></text>
</svg>
